<svg xmlns="http://www.w3.org/2000/svg" viewBox="0 0 400 260" preserveAspectRatio="xMidYMid slice">
  <defs>
    <linearGradient id="bg" x1="0" y1="0" x2="1" y2="1">
      <stop offset="0%" stop-color="#08313a"/><stop offset="55%" stop-color="#0d5e6e"/>
      <stop offset="100%" stop-color="#16909a"/>
    </linearGradient>
    <radialGradient id="sphere" cx="36%" cy="30%" r="78%">
      <stop offset="0%" stop-color="#bff0f4" stop-opacity="0.40"/>
      <stop offset="70%" stop-color="#0d5e6e" stop-opacity="0.10"/>
      <stop offset="100%" stop-color="#04222a" stop-opacity="0.35"/>
    </radialGradient>
  </defs>
  <rect width="400" height="260" fill="url(#bg)"/>
  <g fill="#ffffff" fill-opacity="0.42">
    <circle cx="52" cy="40" r="1.3"/><circle cx="146" cy="26" r="1"/>
    <circle cx="352" cy="44" r="1.2"/><circle cx="62" cy="206" r="1.1"/>
    <circle cx="356" cy="212" r="1"/>
  </g>
  <ellipse cx="214" cy="130" rx="128" ry="52" transform="rotate(-22 214 130)" fill="none" stroke="#c9fbff" stroke-opacity="0.32" stroke-width="1.2"/>
  <g transform="translate(214 130)">
    <circle r="82" fill="url(#sphere)"/>
    <circle r="82" fill="none" stroke="#d6fbff" stroke-opacity="0.55" stroke-width="1.5"/>
    <g fill="none" stroke="#d6fbff" stroke-opacity="0.28" stroke-width="1">
      <ellipse rx="82" ry="28"/><ellipse rx="82" ry="56"/>
      <ellipse rx="28" ry="82"/><ellipse rx="56" ry="82"/>
    </g>
    <path d="M14 -18 q22 6 26 26 q4 22 -14 32 q-20 10 -32 -8 q-12 -18 2 -34 q8 -12 18 -16 z" fill="#7ff0d8" fill-opacity="0.42" stroke="#b6ffe9" stroke-opacity="0.6" stroke-width="1.2"/>
    <circle cx="18" cy="14" r="3" fill="#eafff8"/>
    <circle cx="18" cy="14" r="9" fill="none" stroke="#eafff8" stroke-opacity="0.5" stroke-width="1"/>
    <circle cx="18" cy="14" r="16" fill="none" stroke="#eafff8" stroke-opacity="0.22" stroke-width="1"/>
  </g>
  <circle cx="336" cy="88" r="3" fill="#eafff8" fill-opacity="0.85"/>
</svg>
