<svg xmlns="http://www.w3.org/2000/svg" viewBox="0 0 400 260" preserveAspectRatio="xMidYMid slice">
  <defs>
    <linearGradient id="bg" x1="0" y1="0" x2="1" y2="1">
      <stop offset="0%" stop-color="#111c33"/><stop offset="50%" stop-color="#1d4a72"/>
      <stop offset="100%" stop-color="#2f86ab"/>
    </linearGradient>
    <linearGradient id="trail" x1="0" y1="1" x2="1" y2="0">
      <stop offset="0%" stop-color="#ffd9a0" stop-opacity="0"/>
      <stop offset="60%" stop-color="#ffcf8a" stop-opacity="0.42"/>
      <stop offset="100%" stop-color="#fff2dc" stop-opacity="0.8"/>
    </linearGradient>
  </defs>
  <rect width="400" height="260" fill="url(#bg)"/>
  <g fill="#ffffff" fill-opacity="0.42">
    <circle cx="46" cy="42" r="1.3"/><circle cx="136" cy="24" r="1"/>
    <circle cx="300" cy="36" r="1.2"/><circle cx="352" cy="104" r="1"/>
    <circle cx="76" cy="130" r="1.1"/>
  </g>
  <path d="M28 250 C 96 210 152 158 236 92" fill="none" stroke="url(#trail)" stroke-width="7" stroke-linecap="round"/>
  <path d="M28 250 C 96 210 152 158 236 92" fill="none" stroke="#fff6e8" stroke-opacity="0.35" stroke-width="1.4"/>
  <g transform="translate(264 68) rotate(38)">
    <path d="M0 -30 C 11 -16 13 4 8 22 L-8 22 C -13 4 -11 -16 0 -30 Z" fill="#f2f8ff" fill-opacity="0.95"/>
    <path d="M-8 8 L-20 26 L-8 22 Z" fill="#bcd9f2" fill-opacity="0.9"/>
    <path d="M8 8 L20 26 L8 22 Z" fill="#bcd9f2" fill-opacity="0.9"/>
    <circle cx="0" cy="-8" r="4.6" fill="#2f86ab"/>
    <path d="M-6 22 L0 40 L6 22 Z" fill="#ffc978" fill-opacity="0.95"/>
  </g>
  <path d="M -20 214 C 80 200 180 176 400 130" fill="none" stroke="#bfe0ff" stroke-opacity="0.22" stroke-width="1.2"/>
</svg>
